# xmcd
#
# Track frame offsets: 
#        150
#        10012
#        30827
#        50417
#        74545
#        98530
#        123327
#        145447
#        165115
#        185250
#        203660
#        224030
#
# Disc length: 3161 seconds
#
# Revision: 1
# Processed by: cddbd v1.5.2PL0 Copyright (c) Steve Scherf et al.
# Submitted via: ExactAudioCopyFreeDBPlugin 1.0
#
DISCID=9b0c570c
DTITLE=Debra Laws - Moments
DYEAR=1993
DGENRE=Soul
TTITLE0=What Do You Think Of This World Now (Part I)
TTITLE1=Don't Waste My Time
TTITLE2=I'll Always Love You
TTITLE3=All I Do Is You
TTITLE4=Moments Like This
TTITLE5=Very Special
TTITLE6=When  I Say Jump
TTITLE7=Summer Affair
TTITLE8=Knees Weak
TTITLE9=You Take My Faith Away
TTITLE10=Easy Come, Easy Go
TTITLE11=What Do You Think Of This World Now (Part II)
EXTD=
EXTT0=
EXTT1=
EXTT2=
EXTT3=
EXTT4=
EXTT5=
EXTT6=
EXTT7=
EXTT8=
EXTT9=
EXTT10=
EXTT11=
PLAYORDER=
